<?xml version="1.0" encoding="UTF-8" standalone="no"?>
<svg
   xmlns:dc="http://purl.org/dc/elements/1.1/"
   xmlns:cc="http://creativecommons.org/ns#"
   xmlns:rdf="http://www.w3.org/1999/02/22-rdf-syntax-ns#"
   xmlns:svg="http://www.w3.org/2000/svg"
   xmlns="http://www.w3.org/2000/svg"
   xmlns:sodipodi="http://sodipodi.sourceforge.net/DTD/sodipodi-0.dtd"
   xmlns:inkscape="http://www.inkscape.org/namespaces/inkscape"
   width="108.98222mm"
   height="7.3948741mm"
   viewBox="0 0 108.98222 7.3948741"
   version="1.1"
   id="svg5"
   sodipodi:docname="Soundswitcher.svg"
   inkscape:version="1.0.1 (3bc2e813f5, 2020-09-07)">
  <metadata
     id="metadata27">
    <rdf:RDF>
      <cc:Work
         rdf:about="">
        <dc:format>image/svg+xml</dc:format>
        <dc:type
           rdf:resource="http://purl.org/dc/dcmitype/StillImage" />
      </cc:Work>
    </rdf:RDF>
  </metadata>
  <sodipodi:namedview
     pagecolor="#ffffff"
     bordercolor="#666666"
     borderopacity="1"
     objecttolerance="10"
     gridtolerance="10"
     guidetolerance="10"
     inkscape:pageopacity="0"
     inkscape:pageshadow="2"
     inkscape:window-width="1920"
     inkscape:window-height="1015"
     id="namedview25"
     showgrid="false"
     inkscape:zoom="4.9944643"
     inkscape:cx="245.13824"
     inkscape:cy="13.574122"
     inkscape:window-x="0"
     inkscape:window-y="0"
     inkscape:window-maximized="1"
     inkscape:current-layer="svg5"
     inkscape:document-rotation="0" />
  <defs
     id="defs2" />
  <g
     id="layer1"
     transform="translate(-44.988219,-7.2172998)"
     style="fill:#ffffff;fill-opacity:1">
    <g
       aria-label="FS-ET SoundSw tcher"
       id="text115"
       style="font-size:10.5833px;line-height:1.25;stroke-width:0.264583;fill:#ffffff;fill-opacity:1">
      <path
         d="m 48.79676,8.5505475 h -2.868033 v 2.1910735 h 2.718172 v 0.769977 h -2.718172 v 3.007558 H 44.988219 V 7.7650683 h 3.808541 z"
         style="font-family:Consolas;-inkscape-font-specification:Consolas;fill:#ffffff;fill-opacity:1"
         id="path3405" />
      <path
         d="m 54.899727,12.689817 q 0,0.480589 -0.19637,0.842323 -0.196369,0.361734 -0.547768,0.604612 -0.351399,0.237711 -0.847491,0.356566 -0.490924,0.118856 -1.085201,0.118856 -0.268717,0 -0.537434,-0.02067 -0.263549,-0.02067 -0.511595,-0.05168 -0.242878,-0.03101 -0.459918,-0.07235 -0.217041,-0.04134 -0.39274,-0.08785 v -0.888832 q 0.387572,0.144693 0.868161,0.227375 0.485757,0.08268 1.100705,0.08268 0.444416,0 0.754473,-0.06718 0.315226,-0.07235 0.511595,-0.206705 0.201538,-0.139526 0.289387,-0.335896 0.09302,-0.196369 0.09302,-0.449583 0,-0.273884 -0.155029,-0.465087 -0.149861,-0.196369 -0.397907,-0.346231 -0.248046,-0.155028 -0.568439,-0.279051 -0.315226,-0.129191 -0.645954,-0.263549 -0.330728,-0.134359 -0.651121,-0.289387 -0.315225,-0.160197 -0.563271,-0.37207 -0.248046,-0.21704 -0.403075,-0.506427 -0.149861,-0.2893871 -0.149861,-0.6872944 0,-0.346231 0.144694,-0.6821267 0.144693,-0.3358958 0.449583,-0.5942771 0.30489,-0.263549 0.780312,-0.4237454 0.480589,-0.1601964 1.142045,-0.1601964 0.170532,0 0.366902,0.015503 0.201537,0.015503 0.403075,0.046509 0.206705,0.025838 0.403075,0.062011 0.201537,0.036173 0.372069,0.077514 V 8.7004087 Q 54.067739,8.5867209 53.669832,8.529877 q -0.397907,-0.062012 -0.769976,-0.062012 -0.790647,0 -1.162716,0.263549 -0.372069,0.2635489 -0.372069,0.7079648 0,0.2738843 0.149861,0.4702541 0.155029,0.1963696 0.403075,0.3513986 0.248046,0.155029 0.563271,0.284219 0.320393,0.124024 0.651121,0.258382 0.330728,0.134358 0.645953,0.294555 0.320393,0.160196 0.568439,0.382404 0.248046,0.21704 0.397908,0.511595 0.155028,0.294555 0.155028,0.69763 z"
         style="font-family:Consolas;-inkscape-font-specification:Consolas;fill:#ffffff;fill-opacity:1"
         id="path3402" />
      <path
         d="m 60.020845,12.126545 h -3.090241 v -0.847491 h 3.090241 z"
         style="font-family:Consolas;-inkscape-font-specification:Consolas;fill:#ffffff;fill-opacity:1"
         id="path3399" />
      <path
         d="M 66.263337,14.519156 H 62.42379 V 7.7650683 h 3.839547 v 0.775144 h -2.919709 v 2.0928887 h 2.806021 v 0.775144 h -2.806021 v 2.325432 h 2.919709 z"
         style="font-family:Consolas;-inkscape-font-specification:Consolas;fill:#ffffff;fill-opacity:1"
         id="path3396" />
      <path
         d="M 72.578178,8.5505475 H 70.578306 V 14.519156 H 69.648133 V 8.5505475 H 67.648262 V 7.7650683 h 4.929916 z"
         style="font-family:Consolas;-inkscape-font-specification:Consolas;fill:#ffffff;fill-opacity:1"
         id="path3393" />
      <path
         d="m 83.993463,12.689817 q 0,0.480589 -0.19637,0.842323 -0.19637,0.361734 -0.547768,0.604612 -0.351399,0.237711 -0.847491,0.356566 -0.490925,0.118856 -1.085202,0.118856 -0.268716,0 -0.537433,-0.02067 -0.263549,-0.02067 -0.511595,-0.05168 -0.242878,-0.03101 -0.459919,-0.07235 -0.21704,-0.04134 -0.392739,-0.08785 v -0.888832 q 0.387572,0.144693 0.868161,0.227375 0.485757,0.08268 1.100704,0.08268 0.444416,0 0.754474,-0.06718 0.315225,-0.07235 0.511595,-0.206705 0.201537,-0.139526 0.289387,-0.335896 0.09302,-0.196369 0.09302,-0.449583 0,-0.273884 -0.155028,-0.465087 -0.149862,-0.196369 -0.397908,-0.346231 -0.248046,-0.155028 -0.568439,-0.279051 -0.315225,-0.129191 -0.645953,-0.263549 -0.330728,-0.134359 -0.651121,-0.289387 -0.315225,-0.160197 -0.563271,-0.37207 -0.248046,-0.21704 -0.403075,-0.506427 -0.149861,-0.2893871 -0.149861,-0.6872944 0,-0.346231 0.144693,-0.6821267 0.144694,-0.3358958 0.449584,-0.5942771 0.30489,-0.263549 0.780311,-0.4237454 0.48059,-0.1601964 1.142046,-0.1601964 0.170532,0 0.366901,0.015503 0.201538,0.015503 0.403075,0.046509 0.206705,0.025838 0.403075,0.062011 0.201538,0.036173 0.372069,0.077514 V 8.7004087 Q 83.161475,8.5867209 82.763568,8.529877 q -0.397907,-0.062012 -0.769977,-0.062012 -0.790646,0 -1.162716,0.263549 -0.372069,0.2635489 -0.372069,0.7079648 0,0.2738843 0.149861,0.4702541 0.155029,0.1963696 0.403075,0.3513986 0.248046,0.155029 0.563272,0.284219 0.320393,0.124024 0.651121,0.258382 0.330728,0.134358 0.645953,0.294555 0.320393,0.160196 0.568439,0.382404 0.248046,0.21704 0.397907,0.511595 0.155029,0.294555 0.155029,0.69763 z"
         style="font-family:Consolas;-inkscape-font-specification:Consolas;fill:#ffffff;fill-opacity:1"
         id="path3390" />
      <path
         d="m 90.003414,11.883667 q 0,0.604612 -0.170532,1.11104 -0.170532,0.501259 -0.490925,0.862993 -0.320392,0.356566 -0.780311,0.558104 -0.459919,0.19637 -1.043861,0.19637 -0.558103,0 -1.002519,-0.170532 -0.439249,-0.175699 -0.749306,-0.511595 -0.30489,-0.335896 -0.470254,-0.831988 -0.160197,-0.496092 -0.160197,-1.142045 0,-0.604613 0.170532,-1.100705 0.170532,-0.50126 0.490924,-0.857826 0.320393,-0.3617338 0.780312,-0.5581037 0.459919,-0.2015374 1.043861,-0.2015374 0.558103,0 0.997352,0.1756993 0.444416,0.1705317 0.749306,0.5064274 0.310057,0.3307284 0.470254,0.8268204 0.165364,0.496092 0.165364,1.136878 z m -0.919838,0.04134 q 0,-0.480589 -0.10852,-0.837156 -0.103353,-0.361734 -0.299722,-0.599444 -0.19637,-0.242879 -0.48059,-0.361734 -0.279052,-0.124023 -0.625283,-0.124023 -0.403074,0 -0.692462,0.160196 -0.284219,0.155029 -0.470254,0.418578 -0.180867,0.263549 -0.268716,0.614947 -0.08268,0.346231 -0.08268,0.728636 0,0.480589 0.103352,0.842323 0.108521,0.361734 0.30489,0.604612 0.19637,0.237711 0.475422,0.361734 0.279052,0.118856 0.63045,0.118856 0.403075,0 0.687295,-0.155029 0.289387,-0.160197 0.470254,-0.423746 0.186034,-0.263549 0.268716,-0.60978 0.08785,-0.351398 0.08785,-0.73897 z"
         style="font-family:Consolas;-inkscape-font-specification:Consolas;fill:#ffffff;fill-opacity:1"
         id="path3387" />
      <path
         d="m 95.475931,14.519156 h -0.80615 l -0.03101,-0.837155 q -0.232544,0.268717 -0.444416,0.449583 -0.206705,0.1757 -0.41341,0.28422 -0.206706,0.10852 -0.418578,0.149861 -0.206705,0.04651 -0.439248,0.04651 -0.800983,0 -1.209225,-0.470254 -0.408243,-0.470254 -0.408243,-1.421098 V 9.3308592 h 0.899167 v 3.3176168 q 0,1.193721 0.899167,1.193721 0.165365,0 0.320393,-0.04651 0.160197,-0.05168 0.330728,-0.170532 0.1757,-0.124023 0.37207,-0.330728 0.201537,-0.206705 0.449583,-0.52193 V 9.3308592 h 0.899167 z"
         style="font-family:Consolas;-inkscape-font-specification:Consolas;fill:#ffffff;fill-opacity:1"
         id="path3384" />
      <path
         d="m 97.124405,9.3308592 h 0.800982 l 0.03617,0.8371558 q 0.227376,-0.2687169 0.439249,-0.4444162 0.211872,-0.1808669 0.41341,-0.2893871 0.206705,-0.1085202 0.418578,-0.1498612 0.211872,-0.046509 0.439248,-0.046509 0.800985,0 1.209225,0.4754217 0.41341,0.4702544 0.41341,1.4210974 v 3.384795 h -0.89917 v -3.312448 q 0,-0.60978 -0.22737,-0.899167 -0.227379,-0.294555 -0.676962,-0.294555 -0.165364,0 -0.325561,0.05168 -0.155028,0.04651 -0.32556,0.170532 -0.170532,0.118855 -0.372069,0.32556 -0.19637,0.206705 -0.444416,0.516763 v 3.441639 h -0.899167 z"
         style="font-family:Consolas;-inkscape-font-specification:Consolas;fill:#ffffff;fill-opacity:1"
         id="path3381" />
      <path
         d="m 102.6796,12.033528 q 0,-0.661456 0.18087,-1.173051 0.18087,-0.516763 0.5116,-0.8681616 0.33589,-0.3565662 0.80098,-0.5374332 0.47025,-0.1860345 1.04386,-0.1860345 0.24805,0 0.48576,0.031006 0.24287,0.031006 0.47542,0.098185 V 7.2172998 h 0.90433 v 7.3018562 h -0.80615 l -0.031,-0.981849 q -0.37724,0.547769 -0.81649,0.811318 -0.43925,0.263549 -0.95084,0.263549 -0.44442,0 -0.78548,-0.186035 -0.3359,-0.186034 -0.56327,-0.52193 -0.22221,-0.341063 -0.3359,-0.816485 -0.11369,-0.475422 -0.11369,-1.054196 z m 0.91984,-0.05684 q 0,0.940508 0.27389,1.405595 0.27905,0.459918 0.78548,0.459918 0.34106,0 0.7183,-0.30489 0.3824,-0.30489 0.80098,-0.904334 v -2.408114 q -0.22221,-0.103353 -0.49093,-0.155029 -0.26871,-0.05684 -0.53226,-0.05684 -0.73381,0 -1.14722,0.475422 -0.40824,0.475421 -0.40824,1.488276 z"
         style="font-family:Consolas;-inkscape-font-specification:Consolas;fill:#ffffff;fill-opacity:1"
         id="path3378" />
      <path
         d="m 113.08721,12.689817 q 0,0.480589 -0.19637,0.842323 -0.19637,0.361734 -0.54777,0.604612 -0.3514,0.237711 -0.84749,0.356566 -0.49093,0.118856 -1.08521,0.118856 -0.26871,0 -0.53743,-0.02067 -0.26355,-0.02067 -0.51159,-0.05168 -0.24288,-0.03101 -0.45992,-0.07235 -0.21704,-0.04134 -0.39274,-0.08785 v -0.888832 q 0.38757,0.144693 0.86816,0.227375 0.48576,0.08268 1.1007,0.08268 0.44442,0 0.75448,-0.06718 0.31522,-0.07235 0.51159,-0.206705 0.20154,-0.139526 0.28939,-0.335896 0.093,-0.196369 0.093,-0.449583 0,-0.273884 -0.15503,-0.465087 -0.14986,-0.196369 -0.39791,-0.346231 -0.24805,-0.155028 -0.56844,-0.279051 -0.31522,-0.129191 -0.64595,-0.263549 -0.33073,-0.134359 -0.65112,-0.289387 -0.31523,-0.160197 -0.56327,-0.37207 -0.24805,-0.21704 -0.40308,-0.506427 -0.14986,-0.2893871 -0.14986,-0.6872944 0,-0.346231 0.14469,-0.6821267 0.1447,-0.3358958 0.44959,-0.5942771 0.30489,-0.263549 0.78031,-0.4237454 0.48059,-0.1601964 1.14204,-0.1601964 0.17054,0 0.36691,0.015503 0.20153,0.015503 0.40307,0.046509 0.20671,0.025838 0.40308,0.062011 0.20153,0.036173 0.37206,0.077514 v 0.8268203 q -0.3979,-0.1136878 -0.79581,-0.1705317 -0.39791,-0.062012 -0.76998,-0.062012 -0.79064,0 -1.16271,0.263549 -0.37207,0.2635489 -0.37207,0.7079648 0,0.2738843 0.14986,0.4702541 0.15503,0.1963696 0.40307,0.3513986 0.24805,0.155029 0.56328,0.284219 0.32039,0.124024 0.65112,0.258382 0.33073,0.134358 0.64595,0.294555 0.32039,0.160196 0.56844,0.382404 0.24805,0.21704 0.39791,0.511595 0.15503,0.294555 0.15503,0.69763 z"
         style="font-family:Consolas;-inkscape-font-specification:Consolas;fill:#ffffff;fill-opacity:1"
         id="path3375" />
      <path
         d="m 119.38654,9.3308592 -0.75448,5.1882968 h -1.09037 l -0.7493,-2.170403 -0.14986,-0.527098 -0.17054,0.558104 -0.7183,2.139397 h -1.05936 l -0.74931,-5.1882968 h 0.8785 l 0.43408,3.5243218 0.093,0.785479 0.22221,-0.687294 0.75447,-2.3306 h 0.64595 l 0.81132,2.299594 0.23254,0.687294 0.0775,-0.728635 0.40307,-3.5501598 z"
         style="font-family:Consolas;-inkscape-font-specification:Consolas;fill:#ffffff;fill-opacity:1"
         id="path3372" />
      <path
         d="m 130.39875,14.44681 q -0.30489,0.07751 -0.63045,0.10852 -0.32556,0.03617 -0.66146,0.03617 -0.97668,0 -1.45727,-0.439248 -0.48059,-0.444416 -0.48059,-1.359086 v -2.707836 h -1.4521 V 9.3308592 h 1.4521 v -1.426265 l 0.89917,-0.2325432 v 1.6588082 h 2.3306 v 0.7544738 h -2.3306 v 2.635489 q 0,0.558104 0.29455,0.837156 0.29973,0.273884 0.8785,0.273884 0.24805,0 0.5426,-0.03617 0.29456,-0.04134 0.61495,-0.124023 z"
         style="font-family:Consolas;-inkscape-font-specification:Consolas;fill:#ffffff;fill-opacity:1"
         id="path3369" />
      <path
         d="m 136.06764,14.327954 q -0.3514,0.134359 -0.72347,0.19637 -0.3669,0.06718 -0.75964,0.06718 -1.2299,0 -1.89652,-0.666624 -0.66146,-0.666623 -0.66146,-1.948195 0,-0.614948 0.1912,-1.116207 0.19121,-0.50126 0.53744,-0.857826 0.34623,-0.3565666 0.82682,-0.5477688 0.48059,-0.1963698 1.05936,-0.1963698 0.40308,0 0.75448,0.056844 0.35139,0.056844 0.67179,0.1860346 v 0.8578261 q -0.3359,-0.175699 -0.6873,-0.253214 -0.34623,-0.08268 -0.7183,-0.08268 -0.34623,0 -0.65629,0.134358 -0.30489,0.129191 -0.53743,0.377237 -0.23254,0.248046 -0.3669,0.604613 -0.13436,0.356566 -0.13436,0.806149 0,0.940508 0.45475,1.410762 0.45992,0.465087 1.27124,0.465087 0.3669,0 0.70796,-0.08268 0.34623,-0.08268 0.66663,-0.248046 z"
         style="font-family:Consolas;-inkscape-font-specification:Consolas;fill:#ffffff;fill-opacity:1"
         id="path3366" />
      <path
         d="m 142.02591,14.519156 h -0.89917 v -3.312448 q 0,-0.599445 -0.22737,-0.894 -0.22221,-0.299722 -0.64079,-0.299722 -0.18086,0 -0.34106,0.05168 -0.15503,0.04651 -0.32556,0.170532 -0.17053,0.118855 -0.37207,0.32556 -0.20154,0.206705 -0.46509,0.516763 v 3.441639 h -0.89916 V 7.2172998 h 0.89916 v 2.1135594 l -0.031,0.8164848 q 0.21187,-0.2532135 0.41341,-0.4237452 0.2067,-0.1756993 0.40824,-0.2842195 0.20671,-0.1085201 0.41858,-0.1550288 0.21187,-0.046509 0.43925,-0.046509 0.77514,0 1.19889,0.4754217 0.42374,0.4702544 0.42374,1.4210974 z"
         style="font-family:Consolas;-inkscape-font-specification:Consolas;fill:#ffffff;fill-opacity:1"
         id="path3363" />
      <path
         d="m 148.05653,11.651124 q 0,0.191202 -0.005,0.320392 -0.005,0.129191 -0.0155,0.242879 h -3.64317 q 0,0.795814 0.44441,1.224727 0.44442,0.423746 1.28157,0.423746 0.22738,0 0.45475,-0.0155 0.22738,-0.02067 0.43925,-0.05168 0.21187,-0.03101 0.40308,-0.06718 0.19637,-0.04134 0.36173,-0.08785 v 0.738971 q -0.3669,0.103352 -0.83199,0.165364 -0.45992,0.06718 -0.95601,0.06718 -0.66662,0 -1.14721,-0.180867 -0.48059,-0.180867 -0.79065,-0.521931 -0.30489,-0.34623 -0.45475,-0.842323 -0.14469,-0.501259 -0.14469,-1.13171 0,-0.547768 0.15503,-1.033525 0.16019,-0.490925 0.45991,-0.857826 0.30489,-0.3720695 0.74414,-0.5891098 0.43925,-0.2170403 0.99735,-0.2170403 0.54261,0 0.96118,0.1705317 0.41858,0.1705317 0.7028,0.4857569 0.28939,0.3100575 0.43408,0.7596415 0.14986,0.444416 0.14986,0.997352 z m -0.93534,-0.129191 q 0.0155,-0.346231 -0.0672,-0.630451 -0.0827,-0.289387 -0.25838,-0.496092 -0.17053,-0.206705 -0.42891,-0.320393 -0.25838,-0.118855 -0.59945,-0.118855 -0.29455,0 -0.53743,0.113688 -0.24288,0.113688 -0.41858,0.320393 -0.1757,0.206705 -0.28422,0.496092 -0.10852,0.289387 -0.13435,0.635618 z"
         style="font-family:Consolas;-inkscape-font-specification:Consolas;fill:#ffffff;fill-opacity:1"
         id="path3360" />
      <path
         d="m 149.70501,9.3308592 h 0.82165 l 0.0258,0.9560108 q 0.45992,-0.5529359 0.90433,-0.800982 0.44959,-0.2480461 0.90434,-0.2480461 0.80615,0 1.21956,0.5219303 0.41857,0.5219298 0.38757,1.5502878 h -0.9095 q 0.0155,-0.682127 -0.20154,-0.987016 -0.21187,-0.310058 -0.62528,-0.310058 -0.18087,0 -0.36691,0.06718 -0.18086,0.06201 -0.37723,0.206705 -0.1912,0.139526 -0.40825,0.361734 -0.21704,0.222208 -0.46508,0.537433 v 3.333119 h -0.9095 z"
         style="font-family:Consolas;-inkscape-font-specification:Consolas;fill:#ffffff;fill-opacity:1"
         id="path3357" />
    </g>
    <rect
       id="rect327"
       width="4.3061705"
       height="6.9650979"
       x="120.37102"
       y="7.4298968"
       style="fill:none;fill-opacity:1;stroke:#ffffff;stroke-width:0.275;stroke-dasharray:none;stroke-opacity:1"
       ry="0.54023075" />
    <rect
       style="fill:#ffffff;fill-opacity:1;stroke:none;stroke-width:0.275;stroke-dasharray:none;stroke-opacity:1"
       id="rect1006"
       width="3.7979226"
       height="4.4145269"
       x="120.63152"
       y="7.690794"
       ry="0.37304798" />
  </g>
</svg>
